{"title":"The Romancing Star II (1988) aka ç²¾è£è¿½å¥³ä»”II","uid":14161092,"size":858808564,"categoryP":"video","categoryS":"movies","magnet":"?xt=urn:btih:f58a8d5f0d9ccdc479fcfef4fca1b3bf11457fb3&amp;dn=The+Romancing+Star+II+%281988%29+aka+%E7%B2%BE%E8%A3%9D%E8%BF%BD%E5%A5%B3%E4%BB%94II&amp;tr=udp%3A%2F%2Ftracker.leechers-paradise.org%3A6969&amp;tr=udp%3A%2F%2Fzer0day.ch%3A1337&amp;tr=udp%3A%2F%2Fopen.demonii.com%3A1337&amp;tr=udp%3A%2F%2Ftracker.coppersurfer.tk%3A6969&amp;tr=udp%3A%2F%2Fexodus.desync.com%3A6969","seeders":0,"leechers":0,"uploader":null,"files":1,"time":1459720497,"description":"Chow Yun Fat leaves his buddies Eric Tsang, Stanley Fung, and Nat Chan Bak Cheung to their own devices, so the first thing the trio do is get taken hostage in a bank robbery! The trio makes it onto TV, which equals instant celebrity, but the big station in town won't give them a job. Enter Andy Lau, who gives the guys their own talk show on a rival station, where they beat up their guests for being annoying. Meanwhile, a trio of comely females (including Elizabeth Lee and Carina Lau) move in next door, and the chase is on!\r\n\r\n \nhttps://www.themoviedb.org/movie/152291-ii\r\n\r\n\r\nFormat                                   : AVI\r\nFormat/Info                              : Audio Video Interleave\r\nFile size                                : 819 MiB\r\nDuration                                 : 1h 37mn\r\nOverall bit rate                         : 1 178 Kbps\r\nWriting application                      : MediaCoder 0.6\r\n\r\nVideo\r\nID                                       : 0\r\nFormat                                   : MPEG-4 Visual\r\nFormat profile                           :   \r\nFormat settings, BVOP                    : No\r\nFormat settings, QPel                    : No\r\nFormat settings, GMC                     : No warppoints\r\nFormat settings, Matrix                  : Default (H.263)\r\nCodec ID                                 : XVID\r\nCodec ID/Hint                            : XviD\r\nDuration                                 : 1h 37mn\r\nBit rate                                 : 789 Kbps\r\nWidth                                    : 640 pixels\r\nHeight                                   : 352 pixels\r\nDisplay aspect ratio                     : 16:9\r\nFrame rate                               : 23.976 (23976/1000) fps\r\nColor space                              : YUV\r\nChroma subsampling                       : 4:2:0\r\nBit depth                                : 8 bits\r\nScan type                                : Progressive\r\nCompression mode                         : Lossy\r\nBits/(Pixel*Frame)                       : 0.146\r\nStream size                              : 549 MiB (67%)\r\nWriting library                          : XviD 1.2.1 (UTC 2008-12-04)\r\n\r\nAudio\r\nID                                       : 1\r\nFormat                                   : AC-3\r\nFormat/Info                              : Audio Coding 3\r\nMode extension                           : CM (complete main)\r\nFormat settings, Endianness              : Big\r\nCodec ID                                 : 2000\r\nDuration                                 : 1h 37mn\r\nBit rate mode                            : Constant\r\nBit rate                                 : 384 Kbps\r\nChannel(s)                               : 6 channels\r\nChannel positions                        : Front: L C R, Side: L R, LFE\r\nSampling rate                            : 48.0 KHz\r\nFrame rate                               : 31.250 fps (1536 spf)\r\nCompression mode                         : Lossy\r\nStream size                              : 267 MiB (33%)\r\nAlignment                                : Split accross interleaves\r\nInterleave, duration                     : 500 ms (11.99 video frames)\r\nInterleave, preload duration             : 500 ms","torrent":{"xt":"urn:btih:f58a8d5f0d9ccdc479fcfef4fca1b3bf11457fb3","amp;dn":"The+Romancing+Star+II+%281988%29+aka+%E7%B2%BE%E8%A3%9D%E8%BF%BD%E5%A5%B3%E4%BB%94II","amp;tr":["udp%3A%2F%2Ftracker.leechers-paradise.org%3A6969","udp%3A%2F%2Fzer0day.ch%3A1337","udp%3A%2F%2Fopen.demonii.com%3A1337","udp%3A%2F%2Ftracker.coppersurfer.tk%3A6969","udp%3A%2F%2Fexodus.desync.com%3A6969"],"infoHash":"f58a8d5f0d9ccdc479fcfef4fca1b3bf11457fb3","infoHashBuffer":{"type":"Buffer","data":[245,138,141,95,13,156,205,196,121,252,254,244,252,161,179,191,17,69,127,179]},"announce":[],"urlList":[]}}